<svg xmlns="http://www.w3.org/2000/svg"><style>:root svg:not(:target){display:none}</style><svg id="city" viewBox="0 0 18.9 19.9" style="enable-background:new 0 0 18.9 19.9;"><path class="st0" d="M16.9,0H7C5.9,0,5,0.9,5,2v5.6l-4.7,4.6c-0.1,0.1-0.2,0.3-0.3,0.5c0,0.2,0,0.4,0.1,0.6c0.1,0.2,0.2,0.3,0.4,0.4
	c0.2,0.1,0.4,0.2,0.6,0.2v5c0,0.3,0.1,0.5,0.3,0.7c0.2,0.2,0.4,0.3,0.7,0.3h15.9c0.3,0,0.5-0.1,0.7-0.3c0.2-0.2,0.3-0.4,0.3-0.7V2
	C18.9,0.9,18,0,16.9,0z M8.9,17.9H3v-5.5l3-2.9l2.9,3V17.9z M11,7H9V5h2V7z M14.9,14.9h-2v-2h2V14.9z M14.9,11h-2V9h2V11z M14.9,7
	h-2V5h2V7z"></path><path class="st0" d="M5,13h2v2H5V13z"></path></svg><svg id="clock" viewBox="0 0 29 30" style="enable-background:new 0 0 29 30;"><path class="st0" d="M19,13.5h-2.8V7.8c0-0.4-0.1-0.7-0.4-1c-0.3-0.3-0.6-0.4-1-0.4c-0.4,0-0.7,0.1-1,0.4c-0.3,0.3-0.4,0.6-0.4,1
	v7.1c0,0.4,0.1,0.7,0.4,1c0.3,0.3,0.6,0.4,1,0.4H19c0.4,0,0.7-0.1,1-0.4c0.3-0.3,0.4-0.6,0.4-1c0-0.4-0.1-0.7-0.4-1
	S19.3,13.5,19,13.5z M14.7,0.8c-2.8,0-5.5,0.8-7.8,2.4C4.5,4.7,2.7,6.9,1.7,9.5c-1.1,2.6-1.3,5.4-0.8,8.2c0.5,2.7,1.9,5.3,3.9,7.2
	c2,2,4.5,3.3,7.2,3.9c2.7,0.5,5.6,0.3,8.2-0.8c2.6-1.1,4.8-2.9,6.3-5.2s2.4-5.1,2.4-7.8c0-1.9-0.4-3.7-1.1-5.4
	c-0.7-1.7-1.8-3.3-3.1-4.6c-1.3-1.3-2.9-2.4-4.6-3.1C18.4,1.1,16.6,0.8,14.7,0.8z M14.7,26.2c-2.2,0-4.4-0.7-6.3-1.9
	c-1.9-1.2-3.3-3-4.2-5.1c-0.9-2.1-1.1-4.3-0.6-6.5s1.5-4.2,3.1-5.8s3.6-2.7,5.8-3.1S17,3.6,19,4.4c2.1,0.9,3.8,2.3,5.1,4.2
	c1.2,1.9,1.9,4,1.9,6.3c0,3-1.2,5.9-3.3,8C20.6,25,17.7,26.2,14.7,26.2z"></path></svg><svg id="close" viewBox="0 0 22 23" style="enable-background:new 0 0 22 23;"><style type="text/css"> .st0{fill:#D01818;}</style><g><path class="st0" d="M21,22.6c-0.3,0-0.5-0.1-0.7-0.3L11,13.1l-9.3,9.3c-0.4,0.4-1,0.4-1.4,0C0.1,22.2,0,21.9,0,21.6
		s0.1-0.5,0.3-0.7l9.3-9.3L0.3,2.4c-0.4-0.4-0.4-1,0-1.4s1-0.4,1.4,0l9.3,9.3l9.3-9.3c0.4-0.4,1-0.4,1.4,0C21.9,1.1,22,1.4,22,1.6
		s-0.1,0.5-0.3,0.7l-9.3,9.3l9.3,9.3c0.4,0.4,0.4,1,0,1.4C21.5,22.5,21.3,22.6,21,22.6z"></path></g></svg><svg id="coin" viewBox="0 0 20 13" style="enable-background:new 0 0 20 13;"><path d="M10,0C5,0,0,1.5,0,4.5v4c0,3,5,4.5,10,4.5c5,0,10-1.5,10-4.5v-4C20,1.5,15,0,10,0z M2,8.5V7.3
	C2.6,7.7,3.3,8,4,8.2V10C2.7,9.5,2,8.9,2,8.5z M14,8.6v2c-0.9,0.2-1.9,0.3-3,0.4V9C12,8.9,13,8.8,14,8.6z M9,11c-1,0-2-0.2-3-0.4v-2
	C7,8.8,8,8.9,9,9V11z M16,10V8.2c0.7-0.2,1.4-0.5,2-0.9v1.2C18,8.9,17.3,9.5,16,10z M10,7C4.8,7,2,5.3,2,4.5S4.8,2,10,2
	c5.2,0,8,1.7,8,2.5S15.2,7,10,7z"></path></svg></svg>